PathFileType	4	(X/Y/Z)	OpenSim_Sub01_CSBaseline_Magnet.trc
DataRate	CameraRate	NumFrames	NumMarkers	Units	OrigDataRate	OrigDataStartFrame	OrigNumFrames
100	100	20	8	m	100	5207	5950
Frame#	Time	torso_imu_offset_imu	pelvis_imu_offset_imu	tibia_r_imu_offset_imu	femur_r_imu_offset_imu	tibia_l_imu_offset_imu	femur_l_imu_offset_imu	toes_r_imu_offset_imu	toes_l_imu_offset_imu
				X1	Y1	Z1	X2	Y2	Z2	X3	Y3	Z3	X4	Y4	Z4	X5	Y5	Z5	X6	Y6	Z6	X7	Y7	Z7	X8		Y8	Z8	

5207	52.06000000	-0.92965297	-0.06750777	0.05243383	-0.71111793	0.07370757	-0.60049912	-0.44691398	-0.67175887	0.01738703	-0.57053632	-0.55923628	0.18488868	-0.70270634	0.34818492	0.11169240	-0.51080473	-0.25087093	0.17452030	-0.71897173	-0.17102549	-0.28525921	-0.60226300	-0.13535003	-0.51694311
5208	52.07000000	-0.92834698	-0.07111635	0.04686253	-0.71357659	0.08004790	-0.59772623	-0.43317995	-0.68188559	0.01210969	-0.57160576	-0.55777792	0.17906744	-0.69737864	0.35365118	0.11282387	-0.51210462	-0.24720739	0.18338989	-0.72869111	-0.17176606	-0.26764800	-0.61664472	-0.12477378	-0.50497955
5209	52.08000000	-0.92867275	-0.07226468	0.04273204	-0.71467959	0.08388820	-0.59278986	-0.41879583	-0.69133202	0.00535584	-0.57457500	-0.55504204	0.17182901	-0.69095536	0.35929116	0.11310987	-0.51022752	-0.23992260	0.18902377	-0.73556217	-0.17053506	-0.24830619	-0.63158616	-0.11560906	-0.48799281
5210	52.09000000	-0.93001858	-0.07230573	0.04028803	-0.71451313	0.08585459	-0.58760322	-0.40351712	-0.70032302	-0.00253213	-0.57903413	-0.55141254	0.16417099	-0.68499075	0.36563499	0.11379943	-0.50621785	-0.23073255	0.19122583	-0.73932987	-0.16794671	-0.22773593	-0.64635914	-0.10799097	-0.46800438
5211	52.10000000	-0.93029060	-0.07485323	0.03880780	-0.71439886	0.08863868	-0.58503247	-0.38730643	-0.70971394	-0.01062490	-0.58363107	-0.54831945	0.15713951	-0.68218957	0.37177380	0.11794702	-0.50368744	-0.22205261	0.19204746	-0.74235812	-0.16566142	-0.20565137	-0.66009358	-0.10122023	-0.45024108
5212	52.11000000	-0.92848893	-0.08145044	0.03756642	-0.71514860	0.09337014	-0.58611937	-0.37006427	-0.71983718	-0.01859719	-0.58767886	-0.54653217	0.15128891	-0.68312108	0.37739974	0.12677656	-0.50445516	-0.21580836	0.19316207	-0.74626704	-0.16468567	-0.18132555	-0.67211586	-0.09511583	-0.43802933
5213	52.12000000	-0.92609741	-0.08895576	0.03586205	-0.71640101	0.09763385	-0.58780729	-0.35154650	-0.72984005	-0.02748843	-0.59200172	-0.54531585	0.14607476	-0.68355642	0.38358749	0.13737543	-0.50626533	-0.21281240	0.19533482	-0.75094161	-0.16453674	-0.15306990	-0.68219485	-0.09067737	-0.43036276
5214	52.13000000	-0.92479408	-0.09391205	0.03308227	-0.71769731	0.09883689	-0.58683234	-0.33158286	-0.73876742	-0.03847305	-0.59754111	-0.54368179	0.14082955	-0.67911621	0.39144674	0.14644423	-0.50655061	-0.21369359	0.19910369	-0.75598406	-0.16463010	-0.11920042	-0.69015100	-0.08890748	-0.42560932
5215	52.14000000	-0.92479280	-0.09614898	0.02950573	-0.71921142	0.09750168	-0.58351537	-0.31096761	-0.74626151	-0.05221282	-0.60433806	-0.54012184	0.13514992	-0.67056909	0.40051734	0.15246847	-0.50521841	-0.21873869	0.20393002	-0.76050084	-0.16541049	-0.07942322	-0.69571909	-0.08919154	-0.42173014
5216	52.15000000	-0.92544332	-0.09743265	0.02593577	-0.72148790	0.09598631	-0.58028670	-0.29106046	-0.75231732	-0.06906094	-0.61190484	-0.53282737	0.12878853	-0.66171418	0.40941617	0.15499102	-0.50363318	-0.22802097	0.20864208	-0.76330689	-0.16792784	-0.03426835	-0.69858707	-0.08996339	-0.41645304
5217	52.16000000	-0.92602717	-0.09898694	0.02297578	-0.72452267	0.09618852	-0.57846867	-0.27247881	-0.75700977	-0.08806792	-0.62026438	-0.52125784	0.12153942	-0.65498432	0.41741355	0.15449394	-0.50256926	-0.23913443	0.21251540	-0.76340378	-0.17281011	0.01490801	-0.69922918	-0.09019998	-0.40892552
5218	52.17000000	-0.92569854	-0.10077020	0.02076783	-0.72707673	0.09892599	-0.57685064	-0.25416735	-0.76058202	-0.10538647	-0.63059435	-0.50771082	0.11328449	-0.64967655	0.42526442	0.15352441	-0.50144226	-0.24414732	0.21584165	-0.76021800	-0.17972637	0.06493006	-0.69987542	-0.09011755	-0.40146952
5219	52.18000000	-0.92377706	-0.10253324	0.01937063	-0.72788388	0.10467594	-0.57404311	-0.23499312	-0.76336332	-0.11698254	-0.64399376	-0.49466092	0.10397263	-0.64472315	0.43376886	0.15461978	-0.49958134	-0.23547902	0.21908600	-0.75330966	-0.18823339	0.11259682	-0.70270277	-0.09011815	-0.39658245
5220	52.19000000	-0.92146785	-0.10365220	0.01862685	-0.72712191	0.11190962	-0.57034837	-0.21535771	-0.76633720	-0.12094185	-0.65913644	-0.48244600	0.09412165	-0.63967125	0.44211949	0.15733134	-0.49732153	-0.21689256	0.22308561	-0.74302490	-0.19806827	0.15698872	-0.70688818	-0.09079146	-0.39413939
5221	52.20000000	-0.92108066	-0.10328800	0.01825215	-0.72581933	0.11792052	-0.56706533	-0.19656718	-0.77086786	-0.11660822	-0.67327060	-0.47014407	0.08458291	-0.63443239	0.44856561	0.15945551	-0.49558789	-0.19882322	0.22889222	-0.73017219	-0.20907516	0.19853170	-0.70984455	-0.09283498	-0.39247032
5222	52.21000000	-0.92329247	-0.10183031	0.01805128	-0.72476381	0.12118755	-0.56520185	-0.17976294	-0.77720800	-0.10495172	-0.68470685	-0.45696196	0.07577181	-0.62928267	0.45240661	0.16019531	-0.49460491	-0.18758900	0.23652470	-0.71527445	-0.22123715	0.23758515	-0.71018554	-0.09635086	-0.39030625
5223	52.22000000	-0.92510542	-0.10241678	0.01803146	-0.72418118	0.12286864	-0.56508760	-0.16569296	-0.78311927	-0.09053468	-0.69416737	-0.44243029	0.06712141	-0.62530112	0.45531218	0.16194300	-0.49301698	-0.18012861	0.24369126	-0.69820404	-0.23484441	0.27432116	-0.70925498	-0.10010970	-0.38731764
5224	52.23000000	-0.92341307	-0.10806850	0.01822313	-0.72412964	0.12443058	-0.56688710	-0.15492805	-0.78627110	-0.07813569	-0.70269894	-0.42615411	0.05812576	-0.62350158	0.45913714	0.16716982	-0.48946749	-0.17250559	0.24806936	-0.67899072	-0.25009978	0.30862624	-0.70864040	-0.10287715	-0.38339767
5225	52.24000000	-0.91912179	-0.11676477	0.01861346	-0.72372176	0.12678700	-0.57000680	-0.14676006	-0.78686062	-0.06974793	-0.71133103	-0.40805448	0.05028066	-0.62310354	0.46433682	0.17470782	-0.48479711	-0.16484995	0.25024708	-0.66019804	-0.26587610	0.33770045	-0.70863119	-0.10522756	-0.37942704
5226	52.25000000	-0.91549917	-0.12352200	0.01916443	-0.72151848	0.13052149	-0.57340649	-0.13972971	-0.78657345	-0.06571919	-0.72107892	-0.38824196	0.04625407	-0.62227071	0.47053876	0.18124826	-0.48113841	-0.15968409	0.25252443	-0.64587990	-0.28025757	0.35716993	-0.70875175	-0.10879633	-0.37686409
